<svg width="32" height="32" viewBox="0 0 32 32" fill="none" xmlns="http://www.w3.org/2000/svg">
<g clip-path="url(#clip0_241_73)">
<path d="M6.5 19H26.5C26.7192 19.0002 26.9323 18.9283 27.1067 18.7955C27.281 18.6627 27.4069 18.4763 27.465 18.265L30.465 7.265C30.5058 7.11651 30.5118 6.96061 30.4824 6.80944C30.4531 6.65827 30.3892 6.51591 30.2958 6.39348C30.2024 6.27105 30.082 6.17183 29.944 6.10358C29.8059 6.03533 29.654 5.99988 29.5 6H6.375L6 3.825C5.95846 3.59112 5.83502 3.37967 5.65179 3.2285C5.46856 3.07734 5.23751 2.99634 5 3H2.5C2.23478 3 1.98043 3.10535 1.79289 3.29289C1.60536 3.48043 1.5 3.73478 1.5 4C1.5 4.26521 1.60536 4.51957 1.79289 4.7071C1.98043 4.89464 2.23478 5 2.5 5H4.165L6.305 17C5.37674 17.0259 4.49678 17.4194 3.85868 18.0941C3.22059 18.7687 2.87664 19.6692 2.9025 20.5975C2.92836 21.5258 3.32191 22.4057 3.99657 23.0438C4.67123 23.6819 5.57174 24.0259 6.5 24H7.34C7.08485 24.5335 6.96905 25.123 7.00341 25.7134C7.03777 26.3038 7.22118 26.8758 7.5365 27.3762C7.85181 27.8765 8.28877 28.2887 8.80656 28.5745C9.32436 28.8602 9.90611 29.01 10.4975 29.01C11.0889 29.01 11.6706 28.8602 12.1884 28.5745C12.7062 28.2887 13.1432 27.8765 13.4585 27.3762C13.7738 26.8758 13.9572 26.3038 13.9916 25.7134C14.026 25.123 13.9102 24.5335 13.655 24H18.84C18.5849 24.5335 18.4691 25.123 18.5034 25.7134C18.5378 26.3038 18.7212 26.8758 19.0365 27.3762C19.3518 27.8765 19.7888 28.2887 20.3066 28.5745C20.8244 28.8602 21.4061 29.01 21.9975 29.01C22.5889 29.01 23.1706 28.8602 23.6884 28.5745C24.2062 28.2887 24.6432 27.8765 24.9585 27.3762C25.2738 26.8758 25.4572 26.3038 25.4916 25.7134C25.526 25.123 25.4102 24.5335 25.155 24H28C28.2652 24 28.5196 23.8946 28.7071 23.7071C28.8946 23.5196 29 23.2652 29 23C29 22.7348 28.8946 22.4804 28.7071 22.2929C28.5196 22.1054 28.2652 22 28 22H6.5C6.10218 22 5.72064 21.842 5.43934 21.5607C5.15804 21.2794 5 20.8978 5 20.5C5 20.1022 5.15804 19.7206 5.43934 19.4393C5.72064 19.158 6.10218 19 6.5 19Z" fill="#730C99"/>
<path d="M19.2015 16.8075H16.5915V19.4775H14.1615V16.8075H11.5515V14.5125H14.1615V11.8275H16.5915V14.5125H19.2015V16.8075ZM11.0715 35.3375V32.9525H15.2265V43.9025H12.5565V35.3375H11.0715Z" fill="white"/>
</g>
<defs>
<clipPath id="clip0_241_73">
<rect width="32" height="32" fill="white"/>
</clipPath>
</defs>
</svg>
