<svg width="24" height="24" viewBox="0 0 24 24" fill="none" xmlns="http://www.w3.org/2000/svg">
<path d="M12 0C5.383 0 0 5.383 0 12C0 18.617 5.383 24 12 24C18.617 24 24 18.617 24 12C24 5.383 18.617 0 12 0ZM12 2C17.535 2 22 6.465 22 12C22.0024 14.394 21.144 16.709 19.5813 18.5226C18.0187 20.3362 15.856 21.5275 13.488 21.879V14.918H16.336L16.781 12.023H13.488V10.441C13.488 9.242 13.883 8.176 15.004 8.176H16.812V5.652C16.492 5.609 15.824 5.516 14.555 5.516C11.906 5.516 10.355 6.914 10.355 10.098V12.023H7.633V14.918H10.355V21.855C5.61 21.07 2 16.973 2 12C2 6.465 6.465 2 12 2Z" fill="#7B09A6"/>
</svg>
