<svg width="32" height="29" viewBox="0 0 32 29" fill="none" xmlns="http://www.w3.org/2000/svg">
<path d="M16.0081 7.81301C11.4651 7.81301 7.80114 11.02 7.80114 14.993C7.80114 18.969 11.4651 22.176 16.0081 22.176C20.5511 22.176 24.2151 18.969 24.2151 14.992C24.2151 11.02 20.5511 7.81301 16.0081 7.81301ZM16.0081 19.664C13.0701 19.664 10.6721 17.57 10.6721 14.992C10.6721 12.418 13.0621 10.324 16.0081 10.324C18.9491 10.324 21.3441 12.418 21.3441 14.992C21.3441 17.57 18.9411 19.664 16.0081 19.664ZM26.4651 7.52001C26.4651 8.45001 25.6051 9.19501 24.5511 9.19501C23.4841 9.19501 22.6371 8.44501 22.6371 7.52001C22.6371 6.59401 23.4921 5.84401 24.5511 5.84401C25.6051 5.84401 26.4651 6.59401 26.4651 7.52001ZM31.8981 9.21901C31.7781 6.97701 31.1911 4.98901 29.3131 3.35201C27.4411 1.71101 25.1721 1.19901 22.6051 1.08601C19.9651 0.957008 12.0431 0.957008 9.39814 1.08601C6.84414 1.19601 4.57014 1.70701 2.69114 3.34401C0.813141 4.98001 0.234141 6.96901 0.105141 9.21001C-0.0428594 11.522 -0.0428594 18.456 0.105141 20.769C0.230141 23.011 0.813141 24.999 2.69114 26.636C4.57114 28.272 6.83614 28.788 9.39814 28.897C12.0431 29.03 19.9651 29.03 22.6051 28.897C25.1721 28.792 27.4411 28.28 29.3121 26.636C31.1871 24.999 31.7701 23.011 31.8981 20.769C32.0511 18.456 32.0511 11.531 31.8981 9.21901ZM28.4841 23.25C27.9301 24.477 26.8521 25.418 25.4411 25.914C23.3361 26.644 18.3361 26.477 16.0081 26.477C13.6801 26.477 8.67214 26.637 6.57014 25.914C5.17214 25.426 4.09414 24.48 3.52714 23.25C2.69114 21.406 2.88714 17.031 2.88714 14.992C2.88714 12.957 2.69914 8.57401 3.52714 6.73801C4.08614 5.51201 5.16414 4.57001 6.57014 4.07401C8.68014 3.34401 13.6801 3.51201 16.0081 3.51201C18.3361 3.51201 23.3441 3.35201 25.4411 4.07401C26.8441 4.56301 27.9211 5.50801 28.4841 6.73801C29.3201 8.58201 29.1291 12.957 29.1291 14.992C29.1291 17.032 29.3201 21.414 28.4841 23.25Z" fill="#7B09A6"/>
</svg>
