<svg width="190" height="27" viewBox="0 0 190 27" fill="none" xmlns="http://www.w3.org/2000/svg">
<g filter="url(#filter0_d_240_60)">
<path d="M14.256 18L8.592 10.56V18H4.488V1.152H8.592V8.544L14.208 1.152H19.032L12.504 9.408L19.272 18H14.256ZM31.7104 15.024H25.4224L24.4144 18H20.1184L26.2144 1.152H30.9664L37.0624 18H32.7184L31.7104 15.024ZM30.6544 11.856L28.5664 5.688L26.5024 11.856H30.6544ZM57.9977 1.152V18H53.8937V7.896L50.1257 18H46.8137L43.0217 7.872V18H38.9177V1.152H43.7657L48.4937 12.816L53.1737 1.152H57.9977ZM71.1489 9.36C72.1249 9.568 72.9089 10.056 73.5009 10.824C74.0929 11.576 74.3889 12.44 74.3889 13.416C74.3889 14.824 73.8929 15.944 72.9009 16.776C71.9249 17.592 70.5569 18 68.7969 18H60.9489V1.152H68.5329C70.2449 1.152 71.5809 1.544 72.5409 2.328C73.5169 3.112 74.0049 4.176 74.0049 5.52C74.0049 6.512 73.7409 7.336 73.2129 7.992C72.7009 8.648 72.0129 9.104 71.1489 9.36ZM65.0529 7.968H67.7409C68.4129 7.968 68.9249 7.824 69.2769 7.536C69.6449 7.232 69.8289 6.792 69.8289 6.216C69.8289 5.64 69.6449 5.2 69.2769 4.896C68.9249 4.592 68.4129 4.44 67.7409 4.44H65.0529V7.968ZM68.0769 14.688C68.7649 14.688 69.2929 14.536 69.6609 14.232C70.0449 13.912 70.2369 13.456 70.2369 12.864C70.2369 12.272 70.0369 11.808 69.6369 11.472C69.2529 11.136 68.7169 10.968 68.0289 10.968H65.0529V14.688H68.0769ZM87.2573 15.024H80.9693L79.9613 18H75.6653L81.7613 1.152H86.5133L92.6093 18H88.2653L87.2573 15.024ZM86.2013 11.856L84.1133 5.688L82.0493 11.856H86.2013Z" fill="#7B09A6"/>
<path d="M109.537 18H105.433L98.5686 7.608V18H94.4646V1.152H98.5686L105.433 11.592V1.152H109.537V18ZM122.999 15.024H116.711L115.703 18H111.407L117.503 1.152H122.255L128.351 18H124.007L122.999 15.024ZM121.943 11.856L119.855 5.688L117.791 11.856H121.943ZM142.327 1.152V4.44H137.863V18H133.759V4.44H129.295V1.152H142.327ZM148.49 1.152V18H144.386V1.152H148.49ZM159.433 18.168C157.849 18.168 156.393 17.8 155.065 17.064C153.753 16.328 152.705 15.304 151.921 13.992C151.153 12.664 150.769 11.176 150.769 9.528C150.769 7.88 151.153 6.4 151.921 5.088C152.705 3.776 153.753 2.752 155.065 2.016C156.393 1.28 157.849 0.912 159.433 0.912C161.017 0.912 162.465 1.28 163.777 2.016C165.105 2.752 166.145 3.776 166.897 5.088C167.665 6.4 168.049 7.88 168.049 9.528C168.049 11.176 167.665 12.664 166.897 13.992C166.129 15.304 165.089 16.328 163.777 17.064C162.465 17.8 161.017 18.168 159.433 18.168ZM159.433 14.424C160.777 14.424 161.849 13.976 162.649 13.08C163.465 12.184 163.873 11 163.873 9.528C163.873 8.04 163.465 6.856 162.649 5.976C161.849 5.08 160.777 4.632 159.433 4.632C158.073 4.632 156.985 5.072 156.169 5.952C155.369 6.832 154.969 8.024 154.969 9.528C154.969 11.016 155.369 12.208 156.169 13.104C156.985 13.984 158.073 14.424 159.433 14.424ZM185.404 18H181.3L174.436 7.608V18H170.332V1.152H174.436L181.3 11.592V1.152H185.404V18Z" fill="#F05439"/>
</g>
<defs>
<filter id="filter0_d_240_60" x="0.487793" y="0.911987" width="188.916" height="25.256" filterUnits="userSpaceOnUse" color-interpolation-filters="sRGB">
<feFlood flood-opacity="0" result="BackgroundImageFix"/>
<feColorMatrix in="SourceAlpha" type="matrix" values="0 0 0 0 0 0 0 0 0 0 0 0 0 0 0 0 0 0 127 0" result="hardAlpha"/>
<feOffset dy="4"/>
<feGaussianBlur stdDeviation="2"/>
<feComposite in2="hardAlpha" operator="out"/>
<feColorMatrix type="matrix" values="0 0 0 0 0 0 0 0 0 0 0 0 0 0 0 0 0 0 0.25 0"/>
<feBlend mode="normal" in2="BackgroundImageFix" result="effect1_dropShadow_240_60"/>
<feBlend mode="normal" in="SourceGraphic" in2="effect1_dropShadow_240_60" result="shape"/>
</filter>
</defs>
</svg>
