<svg width="32" height="32" viewBox="0 0 32 32" fill="none" xmlns="http://www.w3.org/2000/svg">
<path fill-rule="evenodd" clip-rule="evenodd" d="M13.5254 6C9.92438 6 7 9.50926 7 13.8305C7 18.1517 9.92438 21.6609 13.5254 21.6609C17.1264 21.6609 20.0508 18.1517 20.0508 13.8305C20.0508 9.50926 17.1264 6 13.5254 6ZM13.5254 7.20469C16.5733 7.20469 19.0469 10.173 19.0469 13.8305C19.0469 17.4879 16.5733 20.4563 13.5254 20.4563C10.4775 20.4563 8.00391 17.4879 8.00391 13.8305C8.00391 10.173 10.4775 7.20469 13.5254 7.20469Z" fill="#B4B1B1"/>
<path fill-rule="evenodd" clip-rule="evenodd" d="M23.9198 25.4509L18.1383 18.5143C17.9426 18.2794 17.6243 18.2794 17.4286 18.5143C17.2328 18.7492 17.2328 19.1311 17.4286 19.366L23.2091 26.3038C23.4058 26.5387 23.7231 26.5387 23.9198 26.3038C24.1156 26.0677 24.1156 25.687 23.9198 25.4509Z" fill="#B4B1B1"/>
</svg>
