<svg width="32" height="28" viewBox="0 0 32 28" fill="none" xmlns="http://www.w3.org/2000/svg">
<path d="M27.207 4.07C24.215 1.445 20.23 0 15.992 0C7.25 0 0.137 6.227 0.137 13.875C0.137 16.32 0.863 18.707 2.25 20.813L0 28L8.406 26.07C10.723 27.176 13.328 27.758 15.984 27.758H15.992C24.73 27.758 32 21.53 32 13.883C32 10.176 30.2 6.695 27.207 4.07ZM15.992 25.418C13.622 25.418 11.301 24.863 9.277 23.813L8.801 23.563L3.812 24.707L5.145 20.449L4.828 20.012C3.508 18.176 2.812 16.055 2.812 13.875C2.813 7.52 8.73 2.344 16 2.344C19.52 2.344 22.828 3.543 25.313 5.727C27.801 7.907 29.328 10.801 29.32 13.883C29.32 20.243 23.258 25.418 15.992 25.418ZM23.222 16.781C22.828 16.605 20.879 15.77 20.516 15.656C20.148 15.539 19.886 15.48 19.621 15.832C19.355 16.18 18.601 16.957 18.363 17.195C18.137 17.425 17.898 17.457 17.508 17.281C15.18 16.261 13.648 15.461 12.113 13.156C11.707 12.543 12.52 12.586 13.277 11.262C13.407 11.032 13.344 10.832 13.242 10.656C13.145 10.48 12.352 8.773 12.02 8.082C11.7 7.406 11.371 7.5 11.129 7.488C10.899 7.477 10.637 7.477 10.371 7.477C10.105 7.477 9.68 7.562 9.312 7.907C8.949 8.257 7.93 9.094 7.93 10.801C7.93 12.508 9.352 14.156 9.543 14.387C9.743 14.617 12.336 18.117 16.313 19.625C18.828 20.575 19.813 20.656 21.07 20.492C21.836 20.395 23.414 19.656 23.742 18.844C24.07 18.031 24.07 17.336 23.972 17.195C23.879 17.039 23.613 16.949 23.222 16.781Z" fill="#7B09A6"/>
</svg>
